<mxfile host="app.diagrams.net" modified="2024-02-01T19:03:07.995Z" agent="Mozilla/5.0 (Windows NT 10.0; Win64; x64) AppleWebKit/537.36 (KHTML, like Gecko) Chrome/121.0.0.0 Safari/537.36" etag="WeL4EPYbH-764JGlTThs" version="23.1.1" type="device">
  <diagram name="Page-1" id="edf60f1a-56cd-e834-aa8a-f176f3a09ee4">
    <mxGraphModel dx="2534" dy="1588" grid="1" gridSize="10" guides="1" tooltips="1" connect="1" arrows="1" fold="1" page="1" pageScale="1" pageWidth="1100" pageHeight="850" background="none" math="0" shadow="0">
      <root>
        <mxCell id="0" />
        <mxCell id="1" parent="0" />
        <mxCell id="WQ_CbdkSGMJaGntY7lkz-7" style="edgeStyle=orthogonalEdgeStyle;rounded=0;orthogonalLoop=1;jettySize=auto;html=1;endArrow=none;endFill=0;" edge="1" parent="1" target="WQ_CbdkSGMJaGntY7lkz-2">
          <mxGeometry relative="1" as="geometry">
            <mxPoint x="330" y="30" as="sourcePoint" />
            <Array as="points">
              <mxPoint x="330" y="10" />
              <mxPoint x="270" y="10" />
            </Array>
          </mxGeometry>
        </mxCell>
        <mxCell id="WQ_CbdkSGMJaGntY7lkz-8" style="edgeStyle=orthogonalEdgeStyle;rounded=0;orthogonalLoop=1;jettySize=auto;html=1;endArrow=none;endFill=0;" edge="1" parent="1" target="WQ_CbdkSGMJaGntY7lkz-3">
          <mxGeometry relative="1" as="geometry">
            <mxPoint x="330" y="30" as="sourcePoint" />
          </mxGeometry>
        </mxCell>
        <mxCell id="WQ_CbdkSGMJaGntY7lkz-9" style="edgeStyle=orthogonalEdgeStyle;rounded=0;orthogonalLoop=1;jettySize=auto;html=1;endArrow=none;endFill=0;" edge="1" parent="1" target="WQ_CbdkSGMJaGntY7lkz-4">
          <mxGeometry relative="1" as="geometry">
            <mxPoint x="330" y="30" as="sourcePoint" />
          </mxGeometry>
        </mxCell>
        <mxCell id="WQ_CbdkSGMJaGntY7lkz-10" style="edgeStyle=orthogonalEdgeStyle;rounded=0;orthogonalLoop=1;jettySize=auto;html=1;endArrow=none;endFill=0;" edge="1" parent="1" target="WQ_CbdkSGMJaGntY7lkz-5">
          <mxGeometry relative="1" as="geometry">
            <mxPoint x="330" y="30" as="sourcePoint" />
            <Array as="points">
              <mxPoint x="330" y="10" />
              <mxPoint x="395" y="10" />
            </Array>
          </mxGeometry>
        </mxCell>
        <mxCell id="WQ_CbdkSGMJaGntY7lkz-12" style="edgeStyle=orthogonalEdgeStyle;rounded=0;orthogonalLoop=1;jettySize=auto;html=1;endArrow=none;endFill=0;" edge="1" parent="1" target="WQ_CbdkSGMJaGntY7lkz-44">
          <mxGeometry relative="1" as="geometry">
            <mxPoint x="380" y="50" as="sourcePoint" />
            <mxPoint x="430" y="50" as="targetPoint" />
          </mxGeometry>
        </mxCell>
        <mxCell id="WQ_CbdkSGMJaGntY7lkz-82" style="edgeStyle=orthogonalEdgeStyle;rounded=0;orthogonalLoop=1;jettySize=auto;html=1;endArrow=none;endFill=0;" edge="1" parent="1" source="WQ_CbdkSGMJaGntY7lkz-1" target="WQ_CbdkSGMJaGntY7lkz-70">
          <mxGeometry relative="1" as="geometry">
            <Array as="points">
              <mxPoint x="320" y="140" />
              <mxPoint x="480" y="140" />
              <mxPoint x="480" y="210" />
            </Array>
          </mxGeometry>
        </mxCell>
        <mxCell id="WQ_CbdkSGMJaGntY7lkz-103" style="edgeStyle=orthogonalEdgeStyle;rounded=0;orthogonalLoop=1;jettySize=auto;html=1;endArrow=none;endFill=0;" edge="1" parent="1" source="WQ_CbdkSGMJaGntY7lkz-1" target="WQ_CbdkSGMJaGntY7lkz-101">
          <mxGeometry relative="1" as="geometry">
            <Array as="points">
              <mxPoint x="320" y="140" />
              <mxPoint x="395" y="140" />
            </Array>
          </mxGeometry>
        </mxCell>
        <mxCell id="WQ_CbdkSGMJaGntY7lkz-104" style="edgeStyle=orthogonalEdgeStyle;rounded=0;orthogonalLoop=1;jettySize=auto;html=1;endArrow=none;endFill=0;" edge="1" parent="1" source="WQ_CbdkSGMJaGntY7lkz-1" target="WQ_CbdkSGMJaGntY7lkz-102">
          <mxGeometry relative="1" as="geometry">
            <Array as="points">
              <mxPoint x="320" y="140" />
              <mxPoint x="137" y="140" />
            </Array>
          </mxGeometry>
        </mxCell>
        <mxCell id="WQ_CbdkSGMJaGntY7lkz-1" value="Students" style="rounded=1;whiteSpace=wrap;html=1;absoluteArcSize=1;arcSize=14;strokeWidth=2;" vertex="1" parent="1">
          <mxGeometry x="280" y="30" width="100" height="40" as="geometry" />
        </mxCell>
        <mxCell id="WQ_CbdkSGMJaGntY7lkz-2" value="&lt;u&gt;idnr&lt;/u&gt;" style="strokeWidth=2;html=1;shape=mxgraph.flowchart.start_2;whiteSpace=wrap;" vertex="1" parent="1">
          <mxGeometry x="250" y="-50" width="40" height="40" as="geometry" />
        </mxCell>
        <mxCell id="WQ_CbdkSGMJaGntY7lkz-3" value="name" style="strokeWidth=2;html=1;shape=mxgraph.flowchart.start_2;whiteSpace=wrap;" vertex="1" parent="1">
          <mxGeometry x="290" y="-50" width="40" height="40" as="geometry" />
        </mxCell>
        <mxCell id="WQ_CbdkSGMJaGntY7lkz-4" value="login" style="strokeWidth=2;html=1;shape=mxgraph.flowchart.start_2;whiteSpace=wrap;" vertex="1" parent="1">
          <mxGeometry x="330" y="-50" width="40" height="40" as="geometry" />
        </mxCell>
        <mxCell id="WQ_CbdkSGMJaGntY7lkz-5" value="program" style="strokeWidth=2;html=1;shape=mxgraph.flowchart.start_2;whiteSpace=wrap;" vertex="1" parent="1">
          <mxGeometry x="370" y="-55" width="50" height="50" as="geometry" />
        </mxCell>
        <mxCell id="WQ_CbdkSGMJaGntY7lkz-15" value="&lt;u&gt;student&lt;/u&gt;" style="strokeWidth=2;html=1;shape=mxgraph.flowchart.start_2;whiteSpace=wrap;" vertex="1" parent="1">
          <mxGeometry x="580" y="-70" width="50" height="50" as="geometry" />
        </mxCell>
        <mxCell id="WQ_CbdkSGMJaGntY7lkz-16" value="branch" style="strokeWidth=2;html=1;shape=mxgraph.flowchart.start_2;whiteSpace=wrap;" vertex="1" parent="1">
          <mxGeometry x="680" y="-65" width="40" height="40" as="geometry" />
        </mxCell>
        <mxCell id="WQ_CbdkSGMJaGntY7lkz-17" value="program" style="strokeWidth=2;html=1;shape=mxgraph.flowchart.start_2;whiteSpace=wrap;" vertex="1" parent="1">
          <mxGeometry x="630" y="-70" width="50" height="50" as="geometry" />
        </mxCell>
        <mxCell id="WQ_CbdkSGMJaGntY7lkz-30" style="edgeStyle=orthogonalEdgeStyle;rounded=0;orthogonalLoop=1;jettySize=auto;html=1;endArrow=none;endFill=0;" edge="1" parent="1" target="WQ_CbdkSGMJaGntY7lkz-28">
          <mxGeometry relative="1" as="geometry">
            <mxPoint x="940" y="30" as="sourcePoint" />
          </mxGeometry>
        </mxCell>
        <mxCell id="WQ_CbdkSGMJaGntY7lkz-76" style="edgeStyle=orthogonalEdgeStyle;rounded=0;orthogonalLoop=1;jettySize=auto;html=1;endArrow=none;endFill=0;" edge="1" parent="1" source="WQ_CbdkSGMJaGntY7lkz-22" target="WQ_CbdkSGMJaGntY7lkz-72">
          <mxGeometry relative="1" as="geometry">
            <Array as="points">
              <mxPoint x="930" y="210" />
            </Array>
          </mxGeometry>
        </mxCell>
        <mxCell id="WQ_CbdkSGMJaGntY7lkz-89" style="edgeStyle=orthogonalEdgeStyle;rounded=0;orthogonalLoop=1;jettySize=auto;html=1;endArrow=none;endFill=0;" edge="1" parent="1" source="WQ_CbdkSGMJaGntY7lkz-22" target="WQ_CbdkSGMJaGntY7lkz-27">
          <mxGeometry relative="1" as="geometry" />
        </mxCell>
        <mxCell id="WQ_CbdkSGMJaGntY7lkz-93" style="edgeStyle=orthogonalEdgeStyle;rounded=0;orthogonalLoop=1;jettySize=auto;html=1;endArrow=none;endFill=0;" edge="1" parent="1" source="WQ_CbdkSGMJaGntY7lkz-22" target="WQ_CbdkSGMJaGntY7lkz-92">
          <mxGeometry relative="1" as="geometry">
            <Array as="points">
              <mxPoint x="930" y="210" />
            </Array>
          </mxGeometry>
        </mxCell>
        <mxCell id="WQ_CbdkSGMJaGntY7lkz-22" value="Branch" style="rounded=1;whiteSpace=wrap;html=1;absoluteArcSize=1;arcSize=14;strokeWidth=2;" vertex="1" parent="1">
          <mxGeometry x="890" y="30" width="100" height="40" as="geometry" />
        </mxCell>
        <mxCell id="WQ_CbdkSGMJaGntY7lkz-27" value="&lt;u&gt;name&lt;/u&gt;" style="strokeWidth=2;html=1;shape=mxgraph.flowchart.start_2;whiteSpace=wrap;" vertex="1" parent="1">
          <mxGeometry x="890" y="-50" width="40" height="40" as="geometry" />
        </mxCell>
        <mxCell id="WQ_CbdkSGMJaGntY7lkz-28" value="&lt;u&gt;program&lt;/u&gt;" style="strokeWidth=2;html=1;shape=mxgraph.flowchart.start_2;whiteSpace=wrap;" vertex="1" parent="1">
          <mxGeometry x="930" y="-60" width="50" height="50" as="geometry" />
        </mxCell>
        <mxCell id="WQ_CbdkSGMJaGntY7lkz-41" style="edgeStyle=orthogonalEdgeStyle;rounded=0;orthogonalLoop=1;jettySize=auto;html=1;endArrow=none;endFill=0;" edge="1" parent="1" source="WQ_CbdkSGMJaGntY7lkz-34" target="WQ_CbdkSGMJaGntY7lkz-35">
          <mxGeometry relative="1" as="geometry" />
        </mxCell>
        <mxCell id="WQ_CbdkSGMJaGntY7lkz-42" style="edgeStyle=orthogonalEdgeStyle;rounded=0;orthogonalLoop=1;jettySize=auto;html=1;endArrow=none;endFill=0;" edge="1" parent="1" source="WQ_CbdkSGMJaGntY7lkz-34" target="WQ_CbdkSGMJaGntY7lkz-36">
          <mxGeometry relative="1" as="geometry" />
        </mxCell>
        <mxCell id="WQ_CbdkSGMJaGntY7lkz-43" style="edgeStyle=orthogonalEdgeStyle;rounded=0;orthogonalLoop=1;jettySize=auto;html=1;endArrow=none;endFill=0;" edge="1" parent="1" source="WQ_CbdkSGMJaGntY7lkz-34" target="WQ_CbdkSGMJaGntY7lkz-37">
          <mxGeometry relative="1" as="geometry">
            <Array as="points">
              <mxPoint x="420" y="510" />
              <mxPoint x="420" y="565" />
            </Array>
          </mxGeometry>
        </mxCell>
        <mxCell id="WQ_CbdkSGMJaGntY7lkz-61" style="edgeStyle=orthogonalEdgeStyle;rounded=0;orthogonalLoop=1;jettySize=auto;html=1;endArrow=none;endFill=0;" edge="1" parent="1" source="WQ_CbdkSGMJaGntY7lkz-34" target="WQ_CbdkSGMJaGntY7lkz-60">
          <mxGeometry relative="1" as="geometry">
            <Array as="points">
              <mxPoint x="790" y="510" />
              <mxPoint x="790" y="656" />
            </Array>
          </mxGeometry>
        </mxCell>
        <mxCell id="WQ_CbdkSGMJaGntY7lkz-34" value="Courses" style="rounded=1;whiteSpace=wrap;html=1;absoluteArcSize=1;arcSize=14;strokeWidth=2;" vertex="1" parent="1">
          <mxGeometry x="440" y="490" width="100" height="40" as="geometry" />
        </mxCell>
        <mxCell id="WQ_CbdkSGMJaGntY7lkz-35" value="name" style="strokeWidth=2;html=1;shape=mxgraph.flowchart.start_2;whiteSpace=wrap;" vertex="1" parent="1">
          <mxGeometry x="350" y="450" width="40" height="40" as="geometry" />
        </mxCell>
        <mxCell id="WQ_CbdkSGMJaGntY7lkz-36" value="credits" style="strokeWidth=2;html=1;shape=mxgraph.flowchart.start_2;whiteSpace=wrap;" vertex="1" parent="1">
          <mxGeometry x="350" y="490" width="40" height="40" as="geometry" />
        </mxCell>
        <mxCell id="WQ_CbdkSGMJaGntY7lkz-37" value="department" style="strokeWidth=2;html=1;shape=mxgraph.flowchart.start_2;whiteSpace=wrap;" vertex="1" parent="1">
          <mxGeometry x="335" y="530" width="70" height="70" as="geometry" />
        </mxCell>
        <mxCell id="WQ_CbdkSGMJaGntY7lkz-38" value="&lt;u&gt;code&lt;/u&gt;" style="strokeWidth=2;html=1;shape=mxgraph.flowchart.start_2;whiteSpace=wrap;" vertex="1" parent="1">
          <mxGeometry x="350" y="410" width="40" height="40" as="geometry" />
        </mxCell>
        <mxCell id="WQ_CbdkSGMJaGntY7lkz-40" style="edgeStyle=orthogonalEdgeStyle;rounded=0;orthogonalLoop=1;jettySize=auto;html=1;entryX=1;entryY=0.5;entryDx=0;entryDy=0;entryPerimeter=0;endArrow=none;endFill=0;" edge="1" parent="1" source="WQ_CbdkSGMJaGntY7lkz-34" target="WQ_CbdkSGMJaGntY7lkz-38">
          <mxGeometry relative="1" as="geometry" />
        </mxCell>
        <mxCell id="WQ_CbdkSGMJaGntY7lkz-45" style="edgeStyle=orthogonalEdgeStyle;rounded=0;orthogonalLoop=1;jettySize=auto;html=1;endArrow=open;endFill=0;" edge="1" parent="1" source="WQ_CbdkSGMJaGntY7lkz-44">
          <mxGeometry relative="1" as="geometry">
            <mxPoint x="890" y="50" as="targetPoint" />
          </mxGeometry>
        </mxCell>
        <mxCell id="WQ_CbdkSGMJaGntY7lkz-48" style="edgeStyle=orthogonalEdgeStyle;rounded=0;orthogonalLoop=1;jettySize=auto;html=1;endArrow=none;endFill=0;" edge="1" parent="1" source="WQ_CbdkSGMJaGntY7lkz-44" target="WQ_CbdkSGMJaGntY7lkz-17">
          <mxGeometry relative="1" as="geometry">
            <Array as="points" />
          </mxGeometry>
        </mxCell>
        <mxCell id="WQ_CbdkSGMJaGntY7lkz-90" style="edgeStyle=orthogonalEdgeStyle;rounded=0;orthogonalLoop=1;jettySize=auto;html=1;endArrow=none;endFill=0;" edge="1" parent="1" source="WQ_CbdkSGMJaGntY7lkz-44" target="WQ_CbdkSGMJaGntY7lkz-15">
          <mxGeometry relative="1" as="geometry">
            <Array as="points">
              <mxPoint x="655" y="-10" />
              <mxPoint x="605" y="-10" />
            </Array>
          </mxGeometry>
        </mxCell>
        <mxCell id="WQ_CbdkSGMJaGntY7lkz-91" style="edgeStyle=orthogonalEdgeStyle;rounded=0;orthogonalLoop=1;jettySize=auto;html=1;endArrow=none;endFill=0;" edge="1" parent="1" source="WQ_CbdkSGMJaGntY7lkz-44" target="WQ_CbdkSGMJaGntY7lkz-16">
          <mxGeometry relative="1" as="geometry">
            <Array as="points">
              <mxPoint x="655" y="-10" />
              <mxPoint x="700" y="-10" />
            </Array>
          </mxGeometry>
        </mxCell>
        <mxCell id="WQ_CbdkSGMJaGntY7lkz-44" value="StudentBranches" style="html=1;whiteSpace=wrap;aspect=fixed;shape=isoRectangle;" vertex="1" parent="1">
          <mxGeometry x="598.75" y="16.25" width="112.5" height="67.5" as="geometry" />
        </mxCell>
        <mxCell id="WQ_CbdkSGMJaGntY7lkz-51" style="edgeStyle=orthogonalEdgeStyle;rounded=0;orthogonalLoop=1;jettySize=auto;html=1;endArrow=none;endFill=0;" edge="1" parent="1" source="WQ_CbdkSGMJaGntY7lkz-50" target="WQ_CbdkSGMJaGntY7lkz-34">
          <mxGeometry relative="1" as="geometry" />
        </mxCell>
        <mxCell id="WQ_CbdkSGMJaGntY7lkz-50" value="isA" style="strokeWidth=2;html=1;shape=mxgraph.flowchart.extract_or_measurement;whiteSpace=wrap;" vertex="1" parent="1">
          <mxGeometry x="465" y="575" width="50" height="40" as="geometry" />
        </mxCell>
        <mxCell id="WQ_CbdkSGMJaGntY7lkz-53" style="edgeStyle=orthogonalEdgeStyle;rounded=0;orthogonalLoop=1;jettySize=auto;html=1;endArrow=none;endFill=0;" edge="1" parent="1" source="WQ_CbdkSGMJaGntY7lkz-52" target="WQ_CbdkSGMJaGntY7lkz-50">
          <mxGeometry relative="1" as="geometry" />
        </mxCell>
        <mxCell id="WQ_CbdkSGMJaGntY7lkz-56" style="edgeStyle=orthogonalEdgeStyle;rounded=0;orthogonalLoop=1;jettySize=auto;html=1;endArrow=none;endFill=0;" edge="1" parent="1" source="WQ_CbdkSGMJaGntY7lkz-52" target="WQ_CbdkSGMJaGntY7lkz-54">
          <mxGeometry relative="1" as="geometry" />
        </mxCell>
        <mxCell id="WQ_CbdkSGMJaGntY7lkz-57" style="edgeStyle=orthogonalEdgeStyle;rounded=0;orthogonalLoop=1;jettySize=auto;html=1;endArrow=none;endFill=0;" edge="1" parent="1" source="WQ_CbdkSGMJaGntY7lkz-52" target="WQ_CbdkSGMJaGntY7lkz-55">
          <mxGeometry relative="1" as="geometry" />
        </mxCell>
        <mxCell id="WQ_CbdkSGMJaGntY7lkz-52" value="LimitedCourses" style="rounded=1;whiteSpace=wrap;html=1;absoluteArcSize=1;arcSize=14;strokeWidth=2;" vertex="1" parent="1">
          <mxGeometry x="440" y="690" width="100" height="40" as="geometry" />
        </mxCell>
        <mxCell id="WQ_CbdkSGMJaGntY7lkz-54" value="&lt;u&gt;code&lt;/u&gt;" style="strokeWidth=2;html=1;shape=mxgraph.flowchart.start_2;whiteSpace=wrap;" vertex="1" parent="1">
          <mxGeometry x="350" y="650" width="40" height="40" as="geometry" />
        </mxCell>
        <mxCell id="WQ_CbdkSGMJaGntY7lkz-55" value="capacity" style="strokeWidth=2;html=1;shape=mxgraph.flowchart.start_2;whiteSpace=wrap;" vertex="1" parent="1">
          <mxGeometry x="330" y="690" width="60" height="60" as="geometry" />
        </mxCell>
        <mxCell id="WQ_CbdkSGMJaGntY7lkz-64" style="edgeStyle=orthogonalEdgeStyle;rounded=0;orthogonalLoop=1;jettySize=auto;html=1;endArrow=none;endFill=0;" edge="1" parent="1" source="WQ_CbdkSGMJaGntY7lkz-60" target="WQ_CbdkSGMJaGntY7lkz-62">
          <mxGeometry relative="1" as="geometry">
            <Array as="points">
              <mxPoint x="1036" y="616.25" />
              <mxPoint x="1005" y="616.25" />
            </Array>
          </mxGeometry>
        </mxCell>
        <mxCell id="WQ_CbdkSGMJaGntY7lkz-65" style="edgeStyle=orthogonalEdgeStyle;rounded=0;orthogonalLoop=1;jettySize=auto;html=1;endArrow=none;endFill=0;" edge="1" parent="1" source="WQ_CbdkSGMJaGntY7lkz-60" target="WQ_CbdkSGMJaGntY7lkz-63">
          <mxGeometry relative="1" as="geometry">
            <Array as="points">
              <mxPoint x="1036" y="616.25" />
              <mxPoint x="1075" y="616.25" />
            </Array>
          </mxGeometry>
        </mxCell>
        <mxCell id="WQ_CbdkSGMJaGntY7lkz-67" style="edgeStyle=orthogonalEdgeStyle;rounded=0;orthogonalLoop=1;jettySize=auto;html=1;endArrow=open;endFill=0;" edge="1" parent="1" source="WQ_CbdkSGMJaGntY7lkz-60" target="WQ_CbdkSGMJaGntY7lkz-66">
          <mxGeometry relative="1" as="geometry" />
        </mxCell>
        <mxCell id="WQ_CbdkSGMJaGntY7lkz-60" value="Classified" style="html=1;whiteSpace=wrap;aspect=fixed;shape=isoRectangle;" vertex="1" parent="1">
          <mxGeometry x="980" y="622.5" width="112.5" height="67.5" as="geometry" />
        </mxCell>
        <mxCell id="WQ_CbdkSGMJaGntY7lkz-62" value="&lt;u&gt;course&lt;/u&gt;" style="strokeWidth=2;html=1;shape=mxgraph.flowchart.start_2;whiteSpace=wrap;" vertex="1" parent="1">
          <mxGeometry x="980" y="536.25" width="50" height="50" as="geometry" />
        </mxCell>
        <mxCell id="WQ_CbdkSGMJaGntY7lkz-63" value="&lt;u&gt;classification&lt;/u&gt;" style="strokeWidth=2;html=1;shape=mxgraph.flowchart.start_2;whiteSpace=wrap;" vertex="1" parent="1">
          <mxGeometry x="1040" y="526.25" width="70" height="70" as="geometry" />
        </mxCell>
        <mxCell id="WQ_CbdkSGMJaGntY7lkz-69" style="edgeStyle=orthogonalEdgeStyle;rounded=0;orthogonalLoop=1;jettySize=auto;html=1;endArrow=none;endFill=0;" edge="1" parent="1" source="WQ_CbdkSGMJaGntY7lkz-66" target="WQ_CbdkSGMJaGntY7lkz-68">
          <mxGeometry relative="1" as="geometry" />
        </mxCell>
        <mxCell id="WQ_CbdkSGMJaGntY7lkz-66" value="Classification" style="rounded=1;whiteSpace=wrap;html=1;absoluteArcSize=1;arcSize=14;strokeWidth=2;" vertex="1" parent="1">
          <mxGeometry x="1170" y="636.25" width="100" height="40" as="geometry" />
        </mxCell>
        <mxCell id="WQ_CbdkSGMJaGntY7lkz-68" value="&lt;u&gt;name&lt;/u&gt;" style="strokeWidth=2;html=1;shape=mxgraph.flowchart.start_2;whiteSpace=wrap;" vertex="1" parent="1">
          <mxGeometry x="1200" y="566.25" width="40" height="40" as="geometry" />
        </mxCell>
        <mxCell id="WQ_CbdkSGMJaGntY7lkz-75" style="edgeStyle=orthogonalEdgeStyle;rounded=0;orthogonalLoop=1;jettySize=auto;html=1;endArrow=open;endFill=0;" edge="1" parent="1" source="WQ_CbdkSGMJaGntY7lkz-70" target="WQ_CbdkSGMJaGntY7lkz-34">
          <mxGeometry relative="1" as="geometry">
            <Array as="points">
              <mxPoint x="582" y="420" />
              <mxPoint x="490" y="420" />
            </Array>
          </mxGeometry>
        </mxCell>
        <mxCell id="WQ_CbdkSGMJaGntY7lkz-80" style="edgeStyle=orthogonalEdgeStyle;rounded=0;orthogonalLoop=1;jettySize=auto;html=1;endArrow=none;endFill=0;" edge="1" parent="1" source="WQ_CbdkSGMJaGntY7lkz-70" target="WQ_CbdkSGMJaGntY7lkz-78">
          <mxGeometry relative="1" as="geometry">
            <Array as="points">
              <mxPoint x="582" y="160" />
              <mxPoint x="540" y="160" />
            </Array>
          </mxGeometry>
        </mxCell>
        <mxCell id="WQ_CbdkSGMJaGntY7lkz-81" style="edgeStyle=orthogonalEdgeStyle;rounded=0;orthogonalLoop=1;jettySize=auto;html=1;endArrow=none;endFill=0;" edge="1" parent="1" source="WQ_CbdkSGMJaGntY7lkz-70" target="WQ_CbdkSGMJaGntY7lkz-79">
          <mxGeometry relative="1" as="geometry">
            <Array as="points">
              <mxPoint x="582" y="160" />
              <mxPoint x="595" y="160" />
            </Array>
          </mxGeometry>
        </mxCell>
        <mxCell id="WQ_CbdkSGMJaGntY7lkz-70" value="MandatoryProgram" style="html=1;whiteSpace=wrap;aspect=fixed;shape=isoRectangle;" vertex="1" parent="1">
          <mxGeometry x="515" y="170" width="133.33" height="80" as="geometry" />
        </mxCell>
        <mxCell id="WQ_CbdkSGMJaGntY7lkz-77" style="edgeStyle=orthogonalEdgeStyle;rounded=0;orthogonalLoop=1;jettySize=auto;html=1;endArrow=open;endFill=0;" edge="1" parent="1" source="WQ_CbdkSGMJaGntY7lkz-72" target="WQ_CbdkSGMJaGntY7lkz-34">
          <mxGeometry relative="1" as="geometry">
            <Array as="points">
              <mxPoint x="787" y="420" />
              <mxPoint x="490" y="420" />
            </Array>
          </mxGeometry>
        </mxCell>
        <mxCell id="WQ_CbdkSGMJaGntY7lkz-86" style="edgeStyle=orthogonalEdgeStyle;rounded=0;orthogonalLoop=1;jettySize=auto;html=1;endArrow=none;endFill=0;" edge="1" parent="1" source="WQ_CbdkSGMJaGntY7lkz-72" target="WQ_CbdkSGMJaGntY7lkz-84">
          <mxGeometry relative="1" as="geometry" />
        </mxCell>
        <mxCell id="WQ_CbdkSGMJaGntY7lkz-87" style="edgeStyle=orthogonalEdgeStyle;rounded=0;orthogonalLoop=1;jettySize=auto;html=1;endArrow=none;endFill=0;" edge="1" parent="1" source="WQ_CbdkSGMJaGntY7lkz-72" target="WQ_CbdkSGMJaGntY7lkz-85">
          <mxGeometry relative="1" as="geometry">
            <Array as="points">
              <mxPoint x="788.25" y="160" />
              <mxPoint x="834.25" y="160" />
            </Array>
          </mxGeometry>
        </mxCell>
        <mxCell id="WQ_CbdkSGMJaGntY7lkz-88" style="edgeStyle=orthogonalEdgeStyle;rounded=0;orthogonalLoop=1;jettySize=auto;html=1;endArrow=none;endFill=0;" edge="1" parent="1" source="WQ_CbdkSGMJaGntY7lkz-72" target="WQ_CbdkSGMJaGntY7lkz-83">
          <mxGeometry relative="1" as="geometry">
            <Array as="points">
              <mxPoint x="788.25" y="160" />
              <mxPoint x="736.25" y="160" />
            </Array>
          </mxGeometry>
        </mxCell>
        <mxCell id="WQ_CbdkSGMJaGntY7lkz-72" value="MandatoryBranch" style="html=1;whiteSpace=wrap;aspect=fixed;shape=isoRectangle;" vertex="1" parent="1">
          <mxGeometry x="721.2500000000001" y="170" width="133.33" height="80" as="geometry" />
        </mxCell>
        <mxCell id="WQ_CbdkSGMJaGntY7lkz-78" value="&lt;u&gt;course&lt;/u&gt;" style="strokeWidth=2;html=1;shape=mxgraph.flowchart.start_2;whiteSpace=wrap;" vertex="1" parent="1">
          <mxGeometry x="515" y="98.75" width="50" height="50" as="geometry" />
        </mxCell>
        <mxCell id="WQ_CbdkSGMJaGntY7lkz-79" value="&lt;u&gt;program&lt;/u&gt;" style="strokeWidth=2;html=1;shape=mxgraph.flowchart.start_2;whiteSpace=wrap;" vertex="1" parent="1">
          <mxGeometry x="565" y="98.75" width="50" height="50" as="geometry" />
        </mxCell>
        <mxCell id="WQ_CbdkSGMJaGntY7lkz-83" value="&lt;u&gt;course&lt;/u&gt;" style="strokeWidth=2;html=1;shape=mxgraph.flowchart.start_2;whiteSpace=wrap;" vertex="1" parent="1">
          <mxGeometry x="711.25" y="103.75" width="50" height="50" as="geometry" />
        </mxCell>
        <mxCell id="WQ_CbdkSGMJaGntY7lkz-84" value="&lt;u&gt;program&lt;/u&gt;" style="strokeWidth=2;html=1;shape=mxgraph.flowchart.start_2;whiteSpace=wrap;" vertex="1" parent="1">
          <mxGeometry x="762.9200000000001" y="103.75" width="50" height="50" as="geometry" />
        </mxCell>
        <mxCell id="WQ_CbdkSGMJaGntY7lkz-85" value="&lt;u&gt;branch&lt;/u&gt;" style="strokeWidth=2;html=1;shape=mxgraph.flowchart.start_2;whiteSpace=wrap;" vertex="1" parent="1">
          <mxGeometry x="814.58" y="108.75" width="40" height="40" as="geometry" />
        </mxCell>
        <mxCell id="WQ_CbdkSGMJaGntY7lkz-97" style="edgeStyle=orthogonalEdgeStyle;rounded=0;orthogonalLoop=1;jettySize=auto;html=1;endArrow=none;endFill=0;" edge="1" parent="1" source="WQ_CbdkSGMJaGntY7lkz-92" target="WQ_CbdkSGMJaGntY7lkz-94">
          <mxGeometry relative="1" as="geometry">
            <Array as="points">
              <mxPoint x="1045" y="160" />
              <mxPoint x="995" y="160" />
            </Array>
          </mxGeometry>
        </mxCell>
        <mxCell id="WQ_CbdkSGMJaGntY7lkz-98" style="edgeStyle=orthogonalEdgeStyle;rounded=0;orthogonalLoop=1;jettySize=auto;html=1;endArrow=none;endFill=0;" edge="1" parent="1" source="WQ_CbdkSGMJaGntY7lkz-92" target="WQ_CbdkSGMJaGntY7lkz-95">
          <mxGeometry relative="1" as="geometry" />
        </mxCell>
        <mxCell id="WQ_CbdkSGMJaGntY7lkz-99" style="edgeStyle=orthogonalEdgeStyle;rounded=0;orthogonalLoop=1;jettySize=auto;html=1;endArrow=none;endFill=0;" edge="1" parent="1" source="WQ_CbdkSGMJaGntY7lkz-92" target="WQ_CbdkSGMJaGntY7lkz-96">
          <mxGeometry relative="1" as="geometry">
            <Array as="points">
              <mxPoint x="1045" y="160" />
              <mxPoint x="1090" y="160" />
            </Array>
          </mxGeometry>
        </mxCell>
        <mxCell id="WQ_CbdkSGMJaGntY7lkz-100" style="edgeStyle=orthogonalEdgeStyle;rounded=0;orthogonalLoop=1;jettySize=auto;html=1;endArrow=open;endFill=0;" edge="1" parent="1" source="WQ_CbdkSGMJaGntY7lkz-92" target="WQ_CbdkSGMJaGntY7lkz-34">
          <mxGeometry relative="1" as="geometry">
            <Array as="points">
              <mxPoint x="1045" y="420" />
              <mxPoint x="490" y="420" />
            </Array>
          </mxGeometry>
        </mxCell>
        <mxCell id="WQ_CbdkSGMJaGntY7lkz-92" value="RecommendedBranch" style="html=1;whiteSpace=wrap;aspect=fixed;shape=isoRectangle;" vertex="1" parent="1">
          <mxGeometry x="970" y="165" width="150" height="90" as="geometry" />
        </mxCell>
        <mxCell id="WQ_CbdkSGMJaGntY7lkz-94" value="&lt;u&gt;course&lt;/u&gt;" style="strokeWidth=2;html=1;shape=mxgraph.flowchart.start_2;whiteSpace=wrap;" vertex="1" parent="1">
          <mxGeometry x="970" y="103.75" width="50" height="50" as="geometry" />
        </mxCell>
        <mxCell id="WQ_CbdkSGMJaGntY7lkz-95" value="&lt;u&gt;program&lt;/u&gt;" style="strokeWidth=2;html=1;shape=mxgraph.flowchart.start_2;whiteSpace=wrap;" vertex="1" parent="1">
          <mxGeometry x="1020" y="103.75" width="50" height="50" as="geometry" />
        </mxCell>
        <mxCell id="WQ_CbdkSGMJaGntY7lkz-96" value="&lt;u&gt;branch&lt;/u&gt;" style="strokeWidth=2;html=1;shape=mxgraph.flowchart.start_2;whiteSpace=wrap;" vertex="1" parent="1">
          <mxGeometry x="1070" y="108.75" width="40" height="40" as="geometry" />
        </mxCell>
        <mxCell id="WQ_CbdkSGMJaGntY7lkz-105" style="edgeStyle=orthogonalEdgeStyle;rounded=0;orthogonalLoop=1;jettySize=auto;html=1;endArrow=open;endFill=0;" edge="1" parent="1" source="WQ_CbdkSGMJaGntY7lkz-101" target="WQ_CbdkSGMJaGntY7lkz-34">
          <mxGeometry relative="1" as="geometry">
            <Array as="points">
              <mxPoint x="395" y="320" />
              <mxPoint x="490" y="320" />
            </Array>
          </mxGeometry>
        </mxCell>
        <mxCell id="WQ_CbdkSGMJaGntY7lkz-114" style="edgeStyle=orthogonalEdgeStyle;rounded=0;orthogonalLoop=1;jettySize=auto;html=1;endArrow=none;endFill=0;" edge="1" parent="1" source="WQ_CbdkSGMJaGntY7lkz-101" target="WQ_CbdkSGMJaGntY7lkz-109">
          <mxGeometry relative="1" as="geometry">
            <Array as="points">
              <mxPoint x="265" y="250" />
            </Array>
          </mxGeometry>
        </mxCell>
        <mxCell id="WQ_CbdkSGMJaGntY7lkz-116" style="edgeStyle=orthogonalEdgeStyle;rounded=0;orthogonalLoop=1;jettySize=auto;html=1;endArrow=none;endFill=0;" edge="1" parent="1" source="WQ_CbdkSGMJaGntY7lkz-101" target="WQ_CbdkSGMJaGntY7lkz-108">
          <mxGeometry relative="1" as="geometry">
            <Array as="points">
              <mxPoint x="315" y="250" />
            </Array>
          </mxGeometry>
        </mxCell>
        <mxCell id="WQ_CbdkSGMJaGntY7lkz-101" value="Registered" style="html=1;whiteSpace=wrap;aspect=fixed;shape=isoRectangle;" vertex="1" parent="1">
          <mxGeometry x="328.34000000000003" y="210" width="133.33" height="80" as="geometry" />
        </mxCell>
        <mxCell id="WQ_CbdkSGMJaGntY7lkz-106" style="edgeStyle=orthogonalEdgeStyle;rounded=0;orthogonalLoop=1;jettySize=auto;html=1;endArrow=open;endFill=0;" edge="1" parent="1" source="WQ_CbdkSGMJaGntY7lkz-102" target="WQ_CbdkSGMJaGntY7lkz-34">
          <mxGeometry relative="1" as="geometry">
            <Array as="points">
              <mxPoint x="137" y="320" />
              <mxPoint x="490" y="320" />
            </Array>
          </mxGeometry>
        </mxCell>
        <mxCell id="WQ_CbdkSGMJaGntY7lkz-117" style="edgeStyle=orthogonalEdgeStyle;rounded=0;orthogonalLoop=1;jettySize=auto;html=1;endArrow=none;endFill=0;" edge="1" parent="1" source="WQ_CbdkSGMJaGntY7lkz-102" target="WQ_CbdkSGMJaGntY7lkz-107">
          <mxGeometry relative="1" as="geometry">
            <Array as="points">
              <mxPoint x="-45" y="250" />
            </Array>
          </mxGeometry>
        </mxCell>
        <mxCell id="WQ_CbdkSGMJaGntY7lkz-118" style="edgeStyle=orthogonalEdgeStyle;rounded=0;orthogonalLoop=1;jettySize=auto;html=1;endArrow=none;endFill=0;" edge="1" parent="1" source="WQ_CbdkSGMJaGntY7lkz-102" target="WQ_CbdkSGMJaGntY7lkz-111">
          <mxGeometry relative="1" as="geometry">
            <Array as="points">
              <mxPoint x="5" y="250" />
            </Array>
          </mxGeometry>
        </mxCell>
        <mxCell id="WQ_CbdkSGMJaGntY7lkz-119" style="edgeStyle=orthogonalEdgeStyle;rounded=0;orthogonalLoop=1;jettySize=auto;html=1;endArrow=none;endFill=0;" edge="1" parent="1" source="WQ_CbdkSGMJaGntY7lkz-102" target="WQ_CbdkSGMJaGntY7lkz-112">
          <mxGeometry relative="1" as="geometry">
            <Array as="points">
              <mxPoint x="55" y="250" />
            </Array>
          </mxGeometry>
        </mxCell>
        <mxCell id="WQ_CbdkSGMJaGntY7lkz-102" value="Taken" style="html=1;whiteSpace=wrap;aspect=fixed;shape=isoRectangle;" vertex="1" parent="1">
          <mxGeometry x="70.00000000000003" y="210" width="133.33" height="80" as="geometry" />
        </mxCell>
        <mxCell id="WQ_CbdkSGMJaGntY7lkz-107" value="&lt;u&gt;student&lt;/u&gt;" style="strokeWidth=2;html=1;shape=mxgraph.flowchart.start_2;whiteSpace=wrap;" vertex="1" parent="1">
          <mxGeometry x="-70" y="185" width="50" height="50" as="geometry" />
        </mxCell>
        <mxCell id="WQ_CbdkSGMJaGntY7lkz-108" value="&lt;u&gt;student&lt;/u&gt;" style="strokeWidth=2;html=1;shape=mxgraph.flowchart.start_2;whiteSpace=wrap;" vertex="1" parent="1">
          <mxGeometry x="290" y="185" width="50" height="50" as="geometry" />
        </mxCell>
        <mxCell id="WQ_CbdkSGMJaGntY7lkz-109" value="&lt;u&gt;course&lt;/u&gt;" style="strokeWidth=2;html=1;shape=mxgraph.flowchart.start_2;whiteSpace=wrap;" vertex="1" parent="1">
          <mxGeometry x="240" y="185" width="50" height="50" as="geometry" />
        </mxCell>
        <mxCell id="WQ_CbdkSGMJaGntY7lkz-111" value="&lt;u&gt;course&lt;/u&gt;" style="strokeWidth=2;html=1;shape=mxgraph.flowchart.start_2;whiteSpace=wrap;" vertex="1" parent="1">
          <mxGeometry x="-20" y="185" width="50" height="50" as="geometry" />
        </mxCell>
        <mxCell id="WQ_CbdkSGMJaGntY7lkz-112" value="grade" style="strokeWidth=2;html=1;shape=mxgraph.flowchart.start_2;whiteSpace=wrap;" vertex="1" parent="1">
          <mxGeometry x="30" y="185" width="50" height="50" as="geometry" />
        </mxCell>
        <mxCell id="WQ_CbdkSGMJaGntY7lkz-120" value="Suggest we put branch in students and make it so it can be null" style="text;html=1;align=center;verticalAlign=middle;resizable=0;points=[];autosize=1;strokeColor=none;fillColor=none;" vertex="1" parent="1">
          <mxGeometry x="750" y="-100" width="360" height="30" as="geometry" />
        </mxCell>
      </root>
    </mxGraphModel>
  </diagram>
</mxfile>
